%MOIN*%
%OFA0B0*%
%FSLAX25Y25*%
%IPPOS*%
%LPD*%
%ADD23C,0.06706*%
%ADD24R,0.06706X0.06706*%
%ADD25C,0.08477*%
%ADD26R,0.08477X0.08477*%
%ADD27R,0.08477X0.08477*%
%ADD28C,0.20485000000000003*%
%ADD29C,0.02375*%
%ADD30C,0.03556*%
%ADD41C,0.06706*%
%ADD42R,0.06706X0.06706*%
%ADD43C,0.08477*%
%ADD44R,0.08477X0.08477*%
%ADD45R,0.08477X0.08477*%
%ADD46C,0.20485000000000003*%
%ADD47C,0.02375*%
%ADD48C,0.03556*%
%ADD49C,0.06706*%
%ADD50R,0.06706X0.06706*%
%ADD51C,0.08477*%
%ADD52R,0.08477X0.08477*%
%ADD53R,0.08477X0.08477*%
%ADD54C,0.20485000000000003*%
%ADD55C,0.02375*%
%ADD56C,0.03556*%
%ADD57C,0.06706*%
%ADD58R,0.06706X0.06706*%
%ADD59C,0.08477*%
%ADD60R,0.08477X0.08477*%
%ADD61R,0.08477X0.08477*%
%ADD62C,0.20485000000000003*%
%ADD63C,0.02375*%
%ADD64C,0.03556*%
G01*
G75*
D23*
X0116929Y0243149D02*
D03*
X0127953Y0243149D02*
D03*
X0102362Y0243149D02*
D03*
X0102362Y0253148D02*
D03*
X0091337Y0243149D02*
D03*
X0091337Y0253148D02*
D03*
X0076772Y0243149D02*
D03*
X0076772Y0253148D02*
D03*
X0065748Y0243149D02*
D03*
X0065748Y0253148D02*
D03*
X0051575Y0243149D02*
D03*
X0051575Y0253148D02*
D03*
X0040551Y0243149D02*
D03*
X0040551Y0253148D02*
D03*
X0029528Y0243149D02*
D03*
X0029528Y0253148D02*
D03*
X0150393Y0324960D02*
D03*
X0150393Y0314960D02*
D03*
X0150393Y0278189D02*
D03*
X0150393Y0341574D02*
D03*
D24*
X0116929Y0253148D02*
D03*
X0127953Y0253148D02*
D03*
X0102362Y0263149D02*
D03*
X0091337Y0263149D02*
D03*
X0076772Y0263149D02*
D03*
X0065748Y0263149D02*
D03*
X0051575Y0263149D02*
D03*
X0040551Y0263149D02*
D03*
X0029528Y0263149D02*
D03*
X0150393Y0304959D02*
D03*
X0150393Y0288188D02*
D03*
X0150393Y0351574D02*
D03*
D25*
X0016535Y0305119D02*
D03*
X0092521Y0377165D02*
D03*
X0045276Y0377165D02*
D03*
D26*
X0016535Y0324804D02*
D03*
D27*
X0112206Y0377165D02*
D03*
X0064961Y0377165D02*
D03*
D28*
X0011811Y0248030D02*
D03*
X0145669Y0381889D02*
D03*
X0011811Y0381889D02*
D03*
X0145669Y0248030D02*
D03*
D29*
X0136221Y0348818D02*
D03*
X0136221Y0301574D02*
D03*
X0124408Y0372441D02*
D03*
X0112599Y0348818D02*
D03*
X0100787Y0372441D02*
D03*
X0088976Y0348818D02*
D03*
X0065354Y0348818D02*
D03*
X0053542Y0372441D02*
D03*
X0041732Y0348818D02*
D03*
X0029920Y0372441D02*
D03*
X0018110Y0348818D02*
D03*
X0029920Y0277952D02*
D03*
X0125394Y0278543D02*
D03*
X0118504Y0278543D02*
D03*
X0118504Y0291141D02*
D03*
X0108464Y0290748D02*
D03*
X0111417Y0292125D02*
D03*
X0088189Y0340551D02*
D03*
X0063778Y0339370D02*
D03*
X0051181Y0330708D02*
D03*
X0062598Y0328740D02*
D03*
X0088779Y0295669D02*
D03*
X0102362Y0310630D02*
D03*
X0112205Y0304330D02*
D03*
X0074803Y0341732D02*
D03*
X0068898Y0327165D02*
D03*
X0074803Y0329133D02*
D03*
X0065354Y0315748D02*
D03*
X0112598Y0320077D02*
D03*
X0066929Y0337795D02*
D03*
X0080709Y0327952D02*
D03*
X0083465Y0327952D02*
D03*
X0070866Y0324803D02*
D03*
D30*
X0083071Y0319291D02*
D03*
X0083071Y0310630D02*
D03*
X0078740Y0314960D02*
D03*
X0074409Y0319291D02*
D03*
X0074409Y0310630D02*
D03*
G04 next file*
G04*
G04 #@! TF.GenerationSoftware,Altium Limited,Altium Designer,21.7.2 (23)*
G04*
G04 Layer_Color=16711935*
G04 skipping 70
G04*
G04 #@! TF.SameCoordinates,D7E17CD3-6D55-4483-A905-566B995BA5DE*
G04*
G04*
G04 #@! TF.FilePolarity,Negative*
G04*
G01*
G75*
D41*
X0286220Y0243149D02*
D03*
X0297244Y0243149D02*
D03*
X0271652Y0243149D02*
D03*
X0271652Y0253148D02*
D03*
X0260630Y0243149D02*
D03*
X0260630Y0253148D02*
D03*
X0246063Y0243149D02*
D03*
X0246063Y0253148D02*
D03*
X0235039Y0243149D02*
D03*
X0235039Y0253148D02*
D03*
X0220866Y0243149D02*
D03*
X0220866Y0253148D02*
D03*
X0209842Y0243149D02*
D03*
X0209842Y0253148D02*
D03*
X0198818Y0243149D02*
D03*
X0198818Y0253148D02*
D03*
X0319685Y0324960D02*
D03*
X0319685Y0314960D02*
D03*
X0319685Y0278189D02*
D03*
X0319685Y0341574D02*
D03*
D42*
X0286220Y0253148D02*
D03*
X0297244Y0253148D02*
D03*
X0271652Y0263149D02*
D03*
X0260630Y0263149D02*
D03*
X0246063Y0263149D02*
D03*
X0235039Y0263149D02*
D03*
X0220866Y0263149D02*
D03*
X0209842Y0263149D02*
D03*
X0198818Y0263149D02*
D03*
X0319685Y0304959D02*
D03*
X0319685Y0288188D02*
D03*
X0319685Y0351574D02*
D03*
D43*
X0185826Y0305119D02*
D03*
X0261811Y0377165D02*
D03*
X0214567Y0377165D02*
D03*
D44*
X0185826Y0324804D02*
D03*
D45*
X0281497Y0377165D02*
D03*
X0234252Y0377165D02*
D03*
D46*
X0181102Y0248030D02*
D03*
X0314960Y0381889D02*
D03*
X0181102Y0381889D02*
D03*
X0314960Y0248030D02*
D03*
D47*
X0305512Y0348818D02*
D03*
X0305512Y0301574D02*
D03*
X0293700Y0372441D02*
D03*
X0281890Y0348818D02*
D03*
X0270078Y0372441D02*
D03*
X0258266Y0348818D02*
D03*
X0234645Y0348818D02*
D03*
X0222834Y0372441D02*
D03*
X0211023Y0348818D02*
D03*
X0199212Y0372441D02*
D03*
X0187401Y0348818D02*
D03*
X0199212Y0277952D02*
D03*
X0294685Y0278543D02*
D03*
X0287795Y0278543D02*
D03*
X0287795Y0291141D02*
D03*
X0277756Y0290748D02*
D03*
X0280708Y0292125D02*
D03*
X0257479Y0340551D02*
D03*
X0233070Y0339370D02*
D03*
X0220472Y0330708D02*
D03*
X0231889Y0328740D02*
D03*
X0258070Y0295669D02*
D03*
X0271652Y0310630D02*
D03*
X0281496Y0304330D02*
D03*
X0244094Y0341732D02*
D03*
X0238188Y0327165D02*
D03*
X0244094Y0329133D02*
D03*
X0234645Y0315748D02*
D03*
X0281889Y0320077D02*
D03*
X0236220Y0337795D02*
D03*
X0250000Y0327952D02*
D03*
X0252755Y0327952D02*
D03*
X0240157Y0324803D02*
D03*
D48*
X0252362Y0319291D02*
D03*
X0252362Y0310630D02*
D03*
X0248030Y0314960D02*
D03*
X0243701Y0319291D02*
D03*
X0243701Y0310630D02*
D03*
G04 next file*
G04*
G04 #@! TF.GenerationSoftware,Altium Limited,Altium Designer,21.7.2 (23)*
G04*
G04 Layer_Color=16711935*
G04 skipping 70
G04*
G04 #@! TF.SameCoordinates,D7E17CD3-6D55-4483-A905-566B995BA5DE*
G04*
G04*
G04 #@! TF.FilePolarity,Negative*
G04*
G01*
G75*
D49*
X0116929Y0073858D02*
D03*
X0127953Y0073858D02*
D03*
X0102362Y0073858D02*
D03*
X0102362Y0083858D02*
D03*
X0091337Y0073858D02*
D03*
X0091337Y0083858D02*
D03*
X0076772Y0073858D02*
D03*
X0076772Y0083858D02*
D03*
X0065748Y0073858D02*
D03*
X0065748Y0083858D02*
D03*
X0051575Y0073858D02*
D03*
X0051575Y0083858D02*
D03*
X0040551Y0073858D02*
D03*
X0040551Y0083858D02*
D03*
X0029528Y0073858D02*
D03*
X0029528Y0083858D02*
D03*
X0150393Y0155669D02*
D03*
X0150393Y0145669D02*
D03*
X0150393Y0108898D02*
D03*
X0150393Y0172283D02*
D03*
D50*
X0116929Y0083858D02*
D03*
X0127953Y0083858D02*
D03*
X0102362Y0093858D02*
D03*
X0091337Y0093858D02*
D03*
X0076772Y0093858D02*
D03*
X0065748Y0093858D02*
D03*
X0051575Y0093858D02*
D03*
X0040551Y0093858D02*
D03*
X0029528Y0093858D02*
D03*
X0150393Y0135669D02*
D03*
X0150393Y0118897D02*
D03*
X0150393Y0182283D02*
D03*
D51*
X0016535Y0135828D02*
D03*
X0092521Y0207873D02*
D03*
X0045276Y0207873D02*
D03*
D52*
X0016535Y0155513D02*
D03*
D53*
X0112206Y0207873D02*
D03*
X0064961Y0207873D02*
D03*
D54*
X0011811Y0078740D02*
D03*
X0145669Y0212598D02*
D03*
X0011811Y0212598D02*
D03*
X0145669Y0078740D02*
D03*
D55*
X0136221Y0179528D02*
D03*
X0136221Y0132282D02*
D03*
X0124408Y0203150D02*
D03*
X0112599Y0179528D02*
D03*
X0100787Y0203150D02*
D03*
X0088976Y0179528D02*
D03*
X0065354Y0179528D02*
D03*
X0053542Y0203150D02*
D03*
X0041732Y0179528D02*
D03*
X0029920Y0203150D02*
D03*
X0018110Y0179528D02*
D03*
X0029920Y0108661D02*
D03*
X0125394Y0109252D02*
D03*
X0118504Y0109252D02*
D03*
X0118504Y0121849D02*
D03*
X0108464Y0121457D02*
D03*
X0111417Y0122834D02*
D03*
X0088189Y0171260D02*
D03*
X0063778Y0170079D02*
D03*
X0051181Y0161417D02*
D03*
X0062598Y0159449D02*
D03*
X0088779Y0126377D02*
D03*
X0102362Y0141339D02*
D03*
X0112205Y0135039D02*
D03*
X0074803Y0172441D02*
D03*
X0068898Y0157874D02*
D03*
X0074803Y0159841D02*
D03*
X0065354Y0146457D02*
D03*
X0112598Y0150787D02*
D03*
X0066929Y0168504D02*
D03*
X0080709Y0158661D02*
D03*
X0083465Y0158661D02*
D03*
X0070866Y0155512D02*
D03*
D56*
X0083071Y0149999D02*
D03*
X0083071Y0141339D02*
D03*
X0078740Y0145669D02*
D03*
X0074409Y0149999D02*
D03*
X0074409Y0141339D02*
D03*
G04 next file*
G04*
G04 #@! TF.GenerationSoftware,Altium Limited,Altium Designer,21.7.2 (23)*
G04*
G04 Layer_Color=16711935*
G04 skipping 70
G04*
G04 #@! TF.SameCoordinates,D7E17CD3-6D55-4483-A905-566B995BA5DE*
G04*
G04*
G04 #@! TF.FilePolarity,Negative*
G04*
G01*
G75*
D57*
X0286220Y0073858D02*
D03*
X0297244Y0073858D02*
D03*
X0271652Y0073858D02*
D03*
X0271652Y0083858D02*
D03*
X0260630Y0073858D02*
D03*
X0260630Y0083858D02*
D03*
X0246063Y0073858D02*
D03*
X0246063Y0083858D02*
D03*
X0235039Y0073858D02*
D03*
X0235039Y0083858D02*
D03*
X0220866Y0073858D02*
D03*
X0220866Y0083858D02*
D03*
X0209842Y0073858D02*
D03*
X0209842Y0083858D02*
D03*
X0198818Y0073858D02*
D03*
X0198818Y0083858D02*
D03*
X0319685Y0155669D02*
D03*
X0319685Y0145669D02*
D03*
X0319685Y0108898D02*
D03*
X0319685Y0172283D02*
D03*
D58*
X0286220Y0083858D02*
D03*
X0297244Y0083858D02*
D03*
X0271652Y0093858D02*
D03*
X0260630Y0093858D02*
D03*
X0246063Y0093858D02*
D03*
X0235039Y0093858D02*
D03*
X0220866Y0093858D02*
D03*
X0209842Y0093858D02*
D03*
X0198818Y0093858D02*
D03*
X0319685Y0135669D02*
D03*
X0319685Y0118897D02*
D03*
X0319685Y0182283D02*
D03*
D59*
X0185826Y0135828D02*
D03*
X0261811Y0207873D02*
D03*
X0214567Y0207873D02*
D03*
D60*
X0185826Y0155513D02*
D03*
D61*
X0281497Y0207873D02*
D03*
X0234252Y0207873D02*
D03*
D62*
X0181102Y0078740D02*
D03*
X0314960Y0212598D02*
D03*
X0181102Y0212598D02*
D03*
X0314960Y0078740D02*
D03*
D63*
X0305512Y0179528D02*
D03*
X0305512Y0132282D02*
D03*
X0293700Y0203150D02*
D03*
X0281890Y0179528D02*
D03*
X0270078Y0203150D02*
D03*
X0258266Y0179528D02*
D03*
X0234645Y0179528D02*
D03*
X0222834Y0203150D02*
D03*
X0211023Y0179528D02*
D03*
X0199212Y0203150D02*
D03*
X0187401Y0179528D02*
D03*
X0199212Y0108661D02*
D03*
X0294685Y0109252D02*
D03*
X0287795Y0109252D02*
D03*
X0287795Y0121849D02*
D03*
X0277756Y0121457D02*
D03*
X0280708Y0122834D02*
D03*
X0257479Y0171260D02*
D03*
X0233070Y0170079D02*
D03*
X0220472Y0161417D02*
D03*
X0231889Y0159449D02*
D03*
X0258070Y0126377D02*
D03*
X0271652Y0141339D02*
D03*
X0281496Y0135039D02*
D03*
X0244094Y0172441D02*
D03*
X0238188Y0157874D02*
D03*
X0244094Y0159841D02*
D03*
X0234645Y0146457D02*
D03*
X0281889Y0150787D02*
D03*
X0236220Y0168504D02*
D03*
X0250000Y0158661D02*
D03*
X0252755Y0158661D02*
D03*
X0240157Y0155512D02*
D03*
D64*
X0252362Y0149999D02*
D03*
X0252362Y0141339D02*
D03*
X0248030Y0145669D02*
D03*
X0243701Y0149999D02*
D03*
X0243701Y0141339D02*
D03*
M02*