G04*
G04 #@! TF.GenerationSoftware,Altium Limited,Altium Designer,21.7.2 (23)*
G04*
G04 Layer_Color=16711935*
%FSLAX25Y25*%
%MOIN*%
G70*
G04*
G04 #@! TF.SameCoordinates,D7E17CD3-6D55-4483-A905-566B995BA5DE*
G04*
G04*
G04 #@! TF.FilePolarity,Negative*
G04*
G01*
G75*
%ADD23C,0.06706*%
%ADD24R,0.06706X0.06706*%
%ADD25C,0.08477*%
%ADD26R,0.08477X0.08477*%
%ADD27R,0.08477X0.08477*%
%ADD28C,0.20485*%
%ADD29C,0.02375*%
%ADD30C,0.03556*%
D23*
X116929Y6929D02*
D03*
X127953D02*
D03*
X102362D02*
D03*
Y16929D02*
D03*
X91339Y6929D02*
D03*
Y16929D02*
D03*
X76772Y6929D02*
D03*
Y16929D02*
D03*
X65748Y6929D02*
D03*
Y16929D02*
D03*
X51575Y6929D02*
D03*
Y16929D02*
D03*
X40551Y6929D02*
D03*
Y16929D02*
D03*
X29528Y6929D02*
D03*
Y16929D02*
D03*
X150394Y88740D02*
D03*
Y78740D02*
D03*
X150394Y41969D02*
D03*
Y105354D02*
D03*
D24*
X116929Y16929D02*
D03*
X127953D02*
D03*
X102362Y26929D02*
D03*
X91339D02*
D03*
X76772D02*
D03*
X65748D02*
D03*
X51575D02*
D03*
X40551D02*
D03*
X29528D02*
D03*
X150394Y68740D02*
D03*
X150394Y51968D02*
D03*
Y115354D02*
D03*
D25*
X16535Y68899D02*
D03*
X92521Y140945D02*
D03*
X45276Y140945D02*
D03*
D26*
X16535Y88584D02*
D03*
D27*
X112206Y140945D02*
D03*
X64961Y140945D02*
D03*
D28*
X11811Y11811D02*
D03*
X145669Y145669D02*
D03*
X11811D02*
D03*
X145669Y11811D02*
D03*
D29*
X136221Y112599D02*
D03*
Y65354D02*
D03*
X124409Y136221D02*
D03*
X112599Y112599D02*
D03*
X100787Y136221D02*
D03*
X88976Y112599D02*
D03*
X65354D02*
D03*
X53543Y136221D02*
D03*
X41732Y112599D02*
D03*
X29921Y136221D02*
D03*
X18110Y112599D02*
D03*
X29921Y41732D02*
D03*
X125394Y42323D02*
D03*
X118504D02*
D03*
Y54921D02*
D03*
X108465Y54528D02*
D03*
X111417Y55905D02*
D03*
X88189Y104331D02*
D03*
X63779Y103150D02*
D03*
X51181Y94488D02*
D03*
X62598Y92520D02*
D03*
X88779Y59449D02*
D03*
X102362Y74410D02*
D03*
X112205Y68110D02*
D03*
X74803Y105512D02*
D03*
X68898Y90945D02*
D03*
X74803Y92913D02*
D03*
X65354Y79528D02*
D03*
X112598Y83858D02*
D03*
X66929Y101575D02*
D03*
X80709Y91732D02*
D03*
X83465D02*
D03*
X70866Y88583D02*
D03*
D30*
X83071Y83071D02*
D03*
Y74410D02*
D03*
X78740Y78740D02*
D03*
X74410Y83071D02*
D03*
Y74410D02*
D03*
M02*
